<?xml version="1.0" encoding="UTF-8"?>
<!DOCTYPE svg PUBLIC "-//W3C//DTD SVG 1.1//EN" "http://www.w3.org/Graphics/SVG/1.1/DTD/svg11.dtd">
<svg xmlns="http://www.w3.org/2000/svg" version="1.1" width="1080px" height="971px" style="shape-rendering:geometricPrecision; text-rendering:geometricPrecision; image-rendering:optimizeQuality; fill-rule:evenodd; clip-rule:evenodd" xmlns:xlink="http://www.w3.org/1999/xlink">
<g><path style="opacity:1" fill="#f1e797" d="M 519.5,371.5 C 519.726,346.68 519.392,321.847 518.5,297C 519.167,296.667 519.833,296.333 520.5,296C 518.19,295.503 515.857,295.337 513.5,295.5C 529.8,293.515 546.466,292.848 563.5,293.5C 549.371,319.754 534.704,345.754 519.5,371.5 Z"/></g>
<g><path style="opacity:1" fill="#e6d689" d="M 513.5,295.5 C 515.857,295.337 518.19,295.503 520.5,296C 519.833,296.333 519.167,296.667 518.5,297C 519.392,321.847 519.726,346.68 519.5,371.5C 510.167,387.5 500.833,403.5 491.5,419.5C 490.711,419.217 490.044,418.717 489.5,418C 491.18,417.653 492.18,416.653 492.5,415C 492.633,388.271 492.466,361.438 492,334.5C 491.468,337.18 489.968,339.18 487.5,340.5C 495.412,325.002 504.079,310.002 513.5,295.5 Z"/></g>
<g><path style="opacity:1" fill="#dbc77c" d="M 491.5,419.5 C 483.086,434.663 474.419,449.663 465.5,464.5C 464.402,463.399 464.235,462.066 465,460.5C 465.333,460.833 465.667,461.167 466,461.5C 466.374,460.584 466.874,459.75 467.5,459C 466.838,433.232 466.171,407.399 465.5,381.5C 464.16,382.867 462.827,384.2 461.5,385.5C 469.426,369.969 478.093,354.969 487.5,340.5C 489.968,339.18 491.468,337.18 492,334.5C 492.466,361.438 492.633,388.271 492.5,415C 492.18,416.653 491.18,417.653 489.5,418C 490.044,418.717 490.711,419.217 491.5,419.5 Z"/></g>
<g><path style="opacity:1" fill="#dbc77c" d="M 595.5,349.5 C 603.349,361.864 610.682,374.53 617.5,387.5C 616.185,386.524 614.852,385.524 613.5,384.5C 612.829,410.399 612.162,436.232 611.5,462C 614.285,465.383 615.952,468.883 616.5,472.5C 608.467,459.429 600.8,446.095 593.5,432.5C 594.043,432.44 594.376,432.107 594.5,431.5C 592.139,428.112 590.306,424.446 589,420.5C 588.333,394.5 588.333,368.5 589,342.5C 591.4,344.729 593.567,347.063 595.5,349.5 Z"/></g>
<g><path style="opacity:1" fill="#e7d98b" d="M 595.5,349.5 C 593.567,347.063 591.4,344.729 589,342.5C 588.333,368.5 588.333,394.5 589,420.5C 590.306,424.446 592.139,428.112 594.5,431.5C 594.376,432.107 594.043,432.44 593.5,432.5C 591.425,429.354 589.592,426.021 588,422.5C 580.726,435.395 573.226,448.062 565.5,460.5C 563.674,435.52 562.84,410.186 563,384.5C 562.667,384.833 562.333,385.167 562,385.5C 561.722,384.584 561.222,383.918 560.5,383.5C 569.601,368.142 578.601,352.642 587.5,337C 588.483,336.409 589.15,336.743 589.5,338C 592.146,341.484 594.146,345.317 595.5,349.5 Z"/></g>
<g><path style="opacity:1" fill="#d1b970" d="M 465.5,464.5 C 457.167,479.167 448.833,493.833 440.5,508.5C 439.833,481.997 439.167,455.33 438.5,428.5C 437.108,429.605 435.941,430.939 435,432.5C 434.601,432.272 434.435,431.938 434.5,431.5C 443.011,415.802 452.011,400.469 461.5,385.5C 462.827,384.2 464.16,382.867 465.5,381.5C 466.171,407.399 466.838,433.232 467.5,459C 466.874,459.75 466.374,460.584 466,461.5C 465.667,461.167 465.333,460.833 465,460.5C 464.235,462.066 464.402,463.399 465.5,464.5 Z"/></g>
<g><path style="opacity:1" fill="#f1e797" d="M 560.5,383.5 C 561.222,383.918 561.722,384.584 562,385.5C 562.333,385.167 562.667,384.833 563,384.5C 562.84,410.186 563.674,435.52 565.5,460.5C 551.256,487.329 536.256,513.662 520.5,539.5C 519.717,537.657 519.05,535.657 518.5,533.5C 518.516,509.922 518.683,485.588 519,460.5C 518.667,460.167 518.333,459.833 518,459.5C 517.623,460.942 516.79,461.942 515.5,462.5C 530.249,435.999 545.249,409.666 560.5,383.5 Z"/></g>
<g><path style="opacity:1" fill="#d0b86f" d="M 617.5,387.5 C 625.498,400.197 633.164,413.197 640.5,426.5C 640.297,428.044 639.63,429.378 638.5,430.5C 639.161,449.363 639.827,468.197 640.5,487C 639.833,491 639.167,495 638.5,499C 639.297,502.745 639.797,506.579 640,510.5C 640.707,512.081 641.54,513.581 642.5,515C 642.272,515.399 641.938,515.565 641.5,515.5C 632.943,501.398 624.61,487.065 616.5,472.5C 615.952,468.883 614.285,465.383 611.5,462C 612.162,436.232 612.829,410.399 613.5,384.5C 614.852,385.524 616.185,386.524 617.5,387.5 Z"/></g>
<g><path style="opacity:1" fill="#c6a964" d="M 440.5,508.5 C 432.419,522.997 424.086,537.331 415.5,551.5C 415.037,547.928 414.703,544.261 414.5,540.5C 414.846,539.304 415.346,539.304 416,540.5C 416.667,538.833 416.667,537.167 416,535.5C 415.667,536.167 415.333,536.833 415,537.5C 414.694,533.664 414.528,529.997 414.5,526.5C 414.846,525.304 415.346,525.304 416,526.5C 416.167,525.5 416.333,524.5 416.5,523.5C 415.833,521.167 415.167,518.833 414.5,516.5C 415.167,514.167 415.833,511.833 416.5,509.5C 416.299,505.576 415.799,505.576 415,509.5C 414.675,505.33 414.509,501.33 414.5,497.5C 414.846,496.304 415.346,496.304 416,497.5C 416.667,495.5 416.667,493.5 416,491.5C 415.028,495.232 414.528,494.899 414.5,490.5C 416.36,483.259 416.86,475.926 416,468.5C 415.667,473.833 415.333,479.167 415,484.5C 414.667,479.5 414.333,474.5 414,469.5C 413.623,470.942 412.79,471.942 411.5,472.5C 418.917,458.664 426.583,444.997 434.5,431.5C 434.435,431.938 434.601,432.272 435,432.5C 435.941,430.939 437.108,429.605 438.5,428.5C 439.167,455.33 439.833,481.997 440.5,508.5 Z"/></g>
<g><path style="opacity:1" fill="#c6a863" d="M 640.5,426.5 C 649.131,441.478 657.798,456.478 666.5,471.5C 666.607,473.379 666.107,473.712 665,472.5C 664.198,477.419 664.365,482.252 665.5,487C 663.293,490.555 663.293,494.221 665.5,498C 664.833,498.333 664.167,498.667 663.5,499C 664.318,516.88 664.318,534.713 663.5,552.5C 655.426,540.698 648.093,528.365 641.5,515.5C 641.938,515.565 642.272,515.399 642.5,515C 641.54,513.581 640.707,512.081 640,510.5C 639.797,506.579 639.297,502.745 638.5,499C 639.167,495 639.833,491 640.5,487C 639.827,468.197 639.161,449.363 638.5,430.5C 639.63,429.378 640.297,428.044 640.5,426.5 Z"/></g>
<g><path style="opacity:1" fill="#e8da8c" d="M 520.5,539.5 C 514.5,550.167 508.5,560.833 502.5,571.5C 501.698,570.048 501.198,568.382 501,566.5C 500.237,569.063 499.737,569.063 499.5,566.5C 500.403,543.365 500.737,520.198 500.5,497C 499.773,495.601 499.273,494.101 499,492.5C 498.583,493.756 497.75,494.423 496.5,494.5C 502.333,483.495 508.666,472.828 515.5,462.5C 516.79,461.942 517.623,460.942 518,459.5C 518.333,459.833 518.667,460.167 519,460.5C 518.683,485.588 518.516,509.922 518.5,533.5C 519.05,535.657 519.717,537.657 520.5,539.5 Z"/></g>
<g><path style="opacity:1" fill="#ba9a57" d="M 415.5,551.5 C 405.58,568.337 395.914,585.337 386.5,602.5C 385.874,576.23 385.208,549.73 384.5,523C 384.833,522.667 385.167,522.333 385.5,522C 384.668,521.312 384.002,521.479 383.5,522.5C 381.501,526.475 379.168,530.141 376.5,533.5C 387.412,512.67 399.078,492.336 411.5,472.5C 412.79,471.942 413.623,470.942 414,469.5C 414.333,474.5 414.667,479.5 415,484.5C 415.333,479.167 415.667,473.833 416,468.5C 416.86,475.926 416.36,483.259 414.5,490.5C 414.528,494.899 415.028,495.232 416,491.5C 416.667,493.5 416.667,495.5 416,497.5C 415.346,496.304 414.846,496.304 414.5,497.5C 414.509,501.33 414.675,505.33 415,509.5C 415.799,505.576 416.299,505.576 416.5,509.5C 415.833,511.833 415.167,514.167 414.5,516.5C 415.167,518.833 415.833,521.167 416.5,523.5C 416.333,524.5 416.167,525.5 416,526.5C 415.346,525.304 414.846,525.304 414.5,526.5C 414.528,529.997 414.694,533.664 415,537.5C 415.333,536.833 415.667,536.167 416,535.5C 416.667,537.167 416.667,538.833 416,540.5C 415.346,539.304 414.846,539.304 414.5,540.5C 414.703,544.261 415.037,547.928 415.5,551.5 Z"/></g>
<g><path style="opacity:1" fill="#ba9a57" d="M 666.5,471.5 C 676.736,488.965 686.736,506.631 696.5,524.5C 694.581,521.681 692.415,519.014 690,516.5C 689.833,518.667 689.667,520.833 689.5,523C 690.02,545.714 690.02,568.214 689.5,590.5C 691.473,595.401 692.806,600.068 693.5,604.5C 682.998,587.501 672.998,570.168 663.5,552.5C 664.318,534.713 664.318,516.88 663.5,499C 664.167,498.667 664.833,498.333 665.5,498C 663.293,494.221 663.293,490.555 665.5,487C 664.365,482.252 664.198,477.419 665,472.5C 666.107,473.712 666.607,473.379 666.5,471.5 Z"/></g>
<g><path style="opacity:1" fill="#dfcd81" d="M 502.5,571.5 C 494.833,584.833 487.167,598.167 479.5,611.5C 478.167,613.5 476.833,615.5 475.5,617.5C 474.287,616.503 474.454,615.503 476,614.5C 476.246,609.628 476.746,604.795 477.5,600C 477.5,580.667 477.5,561.333 477.5,542C 477.038,539.323 476.204,536.823 475,534.5C 474.292,535.381 473.458,536.047 472.5,536.5C 479.998,522.166 487.998,508.166 496.5,494.5C 497.75,494.423 498.583,493.756 499,492.5C 499.273,494.101 499.773,495.601 500.5,497C 500.737,520.198 500.403,543.365 499.5,566.5C 499.737,569.063 500.237,569.063 501,566.5C 501.198,568.382 501.698,570.048 502.5,571.5 Z"/></g>
<g><path style="opacity:1" fill="#e1d083" d="M 604.5,534.5 C 603.115,533.426 601.949,532.093 601,530.5C 600.727,532.101 600.227,533.601 599.5,535C 600.088,557.897 600.422,580.731 600.5,603.5C 600.333,604.5 600.167,605.5 600,606.5C 599.049,606.884 598.216,607.217 597.5,607.5C 585.419,588.349 574.086,568.682 563.5,548.5C 571.429,534.061 579.595,519.728 588,505.5C 594.016,514.864 599.516,524.531 604.5,534.5 Z"/></g>
<g><path style="opacity:1" fill="#b08a4a" d="M 386.5,602.5 C 381.833,610.5 377.167,618.5 372.5,626.5C 371.167,628.833 369.833,631.167 368.5,633.5C 375.648,634.492 382.981,634.825 390.5,634.5C 390.021,637.064 389.355,639.564 388.5,642C 390.891,642.691 390.891,643.691 388.5,645C 389.397,653.63 389.397,662.297 388.5,671C 390.891,671.691 390.891,672.691 388.5,674C 388.833,674.333 389.167,674.667 389.5,675C 384.316,675.174 379.316,675.674 374.5,676.5C 360.167,676.5 345.833,676.5 331.5,676.5C 334.287,675.523 337.287,675.19 340.5,675.5C 347.841,675.666 355.174,675.5 362.5,675C 362.162,660.168 361.162,645.501 359.5,631C 360.796,627.091 361.463,622.925 361.5,618.5C 361.463,614.075 360.796,609.909 359.5,606C 361.161,592.167 362.161,578.167 362.5,564C 361.072,563.421 359.738,563.588 358.5,564.5C 363.746,553.667 369.746,543.334 376.5,533.5C 379.168,530.141 381.501,526.475 383.5,522.5C 384.002,521.479 384.668,521.312 385.5,522C 385.167,522.333 384.833,522.667 384.5,523C 385.208,549.73 385.874,576.23 386.5,602.5 Z"/></g>
<g><path style="opacity:1" fill="#b08b4b" d="M 696.5,524.5 C 697.885,525.574 699.051,526.907 700,528.5C 707.51,542.189 715.01,555.856 722.5,569.5C 720.946,568.086 719.612,566.419 718.5,564.5C 718.167,569.5 717.833,574.5 717.5,579.5C 717.529,584.915 718.195,590.082 719.5,595C 718.28,596.525 717.613,598.359 717.5,600.5C 717.613,602.641 718.28,604.475 719.5,606C 718.204,609.909 717.537,614.075 717.5,618.5C 717.537,622.925 718.204,627.091 719.5,631C 718.19,636.757 717.524,642.757 717.5,649C 717.524,655.243 718.19,661.243 719.5,667C 717.164,669.538 716.83,672.371 718.5,675.5C 710.167,675.5 701.833,675.5 693.5,675.5C 693.749,665.448 694.082,655.615 694.5,646C 693.833,642.667 693.167,639.333 692.5,636C 694.058,635.79 695.391,635.29 696.5,634.5C 701.363,634.819 706.03,634.486 710.5,633.5C 704.581,623.998 698.914,614.331 693.5,604.5C 692.806,600.068 691.473,595.401 689.5,590.5C 690.02,568.214 690.02,545.714 689.5,523C 689.667,520.833 689.833,518.667 690,516.5C 692.415,519.014 694.581,521.681 696.5,524.5 Z"/></g>
<g><path style="opacity:1" fill="#d5c076" d="M 475.5,617.5 C 469.152,628.202 462.819,638.869 456.5,649.5C 456.607,647.621 456.107,647.288 455,648.5C 455.16,622.48 454.326,596.814 452.5,571.5C 458.411,559.337 465.078,547.67 472.5,536.5C 473.458,536.047 474.292,535.381 475,534.5C 476.204,536.823 477.038,539.323 477.5,542C 477.5,561.333 477.5,580.667 477.5,600C 476.746,604.795 476.246,609.628 476,614.5C 474.454,615.503 474.287,616.503 475.5,617.5 Z"/></g>
<g><path style="opacity:1" fill="#d5bf76" d="M 604.5,534.5 C 613.921,549.002 622.588,564.002 630.5,579.5C 629.85,579.196 629.183,578.863 628.5,578.5C 627.816,604.536 627.149,630.536 626.5,656.5C 617.417,641.332 608.084,626.332 598.5,611.5C 598.167,610.167 597.833,608.833 597.5,607.5C 598.216,607.217 599.049,606.884 600,606.5C 600.167,605.5 600.333,604.5 600.5,603.5C 600.422,580.731 600.088,557.897 599.5,535C 600.227,533.601 600.727,532.101 601,530.5C 601.949,532.093 603.115,533.426 604.5,534.5 Z"/></g>
<g><path style="opacity:1" fill="#cdb46c" d="M 452.5,571.5 C 454.326,596.814 455.16,622.48 455,648.5C 456.107,647.288 456.607,647.621 456.5,649.5C 451.904,658.522 446.904,667.355 441.5,676C 426.504,676.5 411.504,676.667 396.5,676.5C 402.645,675.51 408.978,675.177 415.5,675.5C 420.167,675.5 424.833,675.5 429.5,675.5C 429.667,655.164 429.5,634.831 429,614.5C 427.723,616.747 426.223,618.747 424.5,620.5C 424.557,619.391 424.89,618.391 425.5,617.5C 434.011,601.802 443.011,586.469 452.5,571.5 Z"/></g>
<g><path style="opacity:1" fill="#a67d40" d="M 340.5,675.5 C 340.667,649.831 340.5,624.165 340,598.5C 339.623,599.942 338.79,600.942 337.5,601.5C 343.758,588.639 350.758,576.306 358.5,564.5C 359.738,563.588 361.072,563.421 362.5,564C 362.161,578.167 361.161,592.167 359.5,606C 360.796,609.909 361.463,614.075 361.5,618.5C 361.463,622.925 360.796,627.091 359.5,631C 361.162,645.501 362.162,660.168 362.5,675C 355.174,675.5 347.841,675.666 340.5,675.5 Z"/></g>
<g><path style="opacity:1" fill="#a57c3e" d="M 722.5,569.5 C 731.322,583.134 739.656,597.134 747.5,611.5C 746.226,612.189 746.226,613.023 747.5,614C 746.061,614.991 745.061,616.324 744.5,618C 744.548,637.048 744.548,656.048 744.5,675C 757.34,675.169 770.007,675.669 782.5,676.5C 763.833,676.5 745.167,676.5 726.5,676.5C 724.052,675.527 721.385,675.194 718.5,675.5C 716.83,672.371 717.164,669.538 719.5,667C 718.19,661.243 717.524,655.243 717.5,649C 717.524,642.757 718.19,636.757 719.5,631C 718.204,627.091 717.537,622.925 717.5,618.5C 717.537,614.075 718.204,609.909 719.5,606C 718.28,604.475 717.613,602.641 717.5,600.5C 717.613,598.359 718.28,596.525 719.5,595C 718.195,590.082 717.529,584.915 717.5,579.5C 717.833,574.5 718.167,569.5 718.5,564.5C 719.612,566.419 720.946,568.086 722.5,569.5 Z"/></g>
<g><path style="opacity:1" fill="#caae67" d="M 630.5,579.5 C 639.39,593.599 648.057,607.932 656.5,622.5C 658.109,626.217 660.109,629.717 662.5,633C 675.829,633.5 689.163,633.667 702.5,633.5C 705.167,633.5 707.833,633.5 710.5,633.5C 706.03,634.486 701.363,634.819 696.5,634.5C 685.162,634.333 673.828,634.5 662.5,635C 663.991,637.097 664.991,639.43 665.5,642C 664.833,642.333 664.167,642.667 663.5,643C 664.435,653.985 664.435,664.652 663.5,675C 672.01,675.171 680.343,675.671 688.5,676.5C 671.497,676.667 654.497,676.5 637.5,676C 633.577,669.594 629.911,663.094 626.5,656.5C 627.149,630.536 627.816,604.536 628.5,578.5C 629.183,578.863 629.85,579.196 630.5,579.5 Z"/></g>
<g><path style="opacity:0.142" fill="#000000" d="M 598.5,611.5 C 608.084,626.332 617.417,641.332 626.5,656.5C 629.911,663.094 633.577,669.594 637.5,676C 654.497,676.5 671.497,676.667 688.5,676.5C 701.167,676.5 713.833,676.5 726.5,676.5C 745.167,676.5 763.833,676.5 782.5,676.5C 783.167,676.833 783.833,677.167 784.5,677.5C 783.128,685.889 778.128,690.723 769.5,692C 766.447,692.179 763.447,692.679 760.5,693.5C 710.342,695.845 660.175,697.845 610,699.5C 563,698.823 516,698.157 469,697.5C 451.411,697.634 433.911,697.967 416.5,698.5C 384.189,695.976 351.855,693.81 319.5,692C 313.209,691.927 307.209,690.594 301.5,688C 298.398,684.734 296.398,680.901 295.5,676.5C 307.5,676.5 319.5,676.5 331.5,676.5C 345.833,676.5 360.167,676.5 374.5,676.5C 381.833,676.5 389.167,676.5 396.5,676.5C 411.504,676.667 426.504,676.5 441.5,676C 446.904,667.355 451.904,658.522 456.5,649.5C 462.819,638.869 469.152,628.202 475.5,617.5C 476.833,615.5 478.167,613.5 479.5,611.5C 497.759,609.429 516.093,608.429 534.5,608.5C 555.884,608.636 577.218,609.636 598.5,611.5 Z"/></g>
<g><path style="opacity:1" fill="#9d7034" d="M 340.5,675.5 C 337.287,675.19 334.287,675.523 331.5,676.5C 319.5,676.5 307.5,676.5 295.5,676.5C 294.761,676.631 294.094,676.464 293.5,676C 308.08,650.989 322.747,626.155 337.5,601.5C 338.79,600.942 339.623,599.942 340,598.5C 340.5,624.165 340.667,649.831 340.5,675.5 Z"/></g>
<g><path style="opacity:1" fill="#c6a964" d="M 415.5,675.5 C 414.912,673.795 414.579,672.128 414.5,670.5C 414.846,669.304 415.346,669.304 416,670.5C 416.167,669.5 416.333,668.5 416.5,667.5C 415.833,665.167 415.167,662.833 414.5,660.5C 415.167,658.167 415.833,655.833 416.5,653.5C 416.299,649.576 415.799,649.576 415,653.5C 414.675,649.33 414.509,645.33 414.5,641.5C 414.846,640.304 415.346,640.304 416,641.5C 416.497,639.19 416.663,636.857 416.5,634.5C 407.833,634.5 399.167,634.5 390.5,634.5C 382.981,634.825 375.648,634.492 368.5,633.5C 384.503,633.667 400.503,633.5 416.5,633C 419.066,628.684 421.733,624.517 424.5,620.5C 426.223,618.747 427.723,616.747 429,614.5C 429.5,634.831 429.667,655.164 429.5,675.5C 424.833,675.5 420.167,675.5 415.5,675.5 Z"/></g>
<g><path style="opacity:0.009" fill="#000000" d="M 425.5,617.5 C 424.89,618.391 424.557,619.391 424.5,620.5C 421.733,624.517 419.066,628.684 416.5,633C 400.503,633.5 384.503,633.667 368.5,633.5C 369.833,631.167 371.167,628.833 372.5,626.5C 390.145,623.282 407.811,620.282 425.5,617.5 Z"/></g>
<g><path style="opacity:0.005" fill="#000000" d="M 656.5,622.5 C 672.127,625.421 687.46,629.088 702.5,633.5C 689.163,633.667 675.829,633.5 662.5,633C 660.109,629.717 658.109,626.217 656.5,622.5 Z"/></g>
<g><path style="opacity:1" fill="#9b6d32" d="M 747.5,611.5 C 759.905,633.091 772.571,654.591 785.5,676C 784.944,676.383 784.611,676.883 784.5,677.5C 783.833,677.167 783.167,676.833 782.5,676.5C 770.007,675.669 757.34,675.169 744.5,675C 744.548,656.048 744.548,637.048 744.5,618C 745.061,616.324 746.061,614.991 747.5,614C 746.226,613.023 746.226,612.189 747.5,611.5 Z"/></g>
<g><path style="opacity:1" fill="#bb9a57" d="M 390.5,634.5 C 399.167,634.5 407.833,634.5 416.5,634.5C 416.663,636.857 416.497,639.19 416,641.5C 415.346,640.304 414.846,640.304 414.5,641.5C 414.509,645.33 414.675,649.33 415,653.5C 415.799,649.576 416.299,649.576 416.5,653.5C 415.833,655.833 415.167,658.167 414.5,660.5C 415.167,662.833 415.833,665.167 416.5,667.5C 416.333,668.5 416.167,669.5 416,670.5C 415.346,669.304 414.846,669.304 414.5,670.5C 414.579,672.128 414.912,673.795 415.5,675.5C 408.978,675.177 402.645,675.51 396.5,676.5C 389.167,676.5 381.833,676.5 374.5,676.5C 379.316,675.674 384.316,675.174 389.5,675C 389.167,674.667 388.833,674.333 388.5,674C 390.891,672.691 390.891,671.691 388.5,671C 389.397,662.297 389.397,653.63 388.5,645C 390.891,643.691 390.891,642.691 388.5,642C 389.355,639.564 390.021,637.064 390.5,634.5 Z"/></g>
<g><path style="opacity:1" fill="#ba9956" d="M 696.5,634.5 C 695.391,635.29 694.058,635.79 692.5,636C 693.167,639.333 693.833,642.667 694.5,646C 694.082,655.615 693.749,665.448 693.5,675.5C 701.833,675.5 710.167,675.5 718.5,675.5C 721.385,675.194 724.052,675.527 726.5,676.5C 713.833,676.5 701.167,676.5 688.5,676.5C 680.343,675.671 672.01,675.171 663.5,675C 664.435,664.652 664.435,653.985 663.5,643C 664.167,642.667 664.833,642.333 665.5,642C 664.991,639.43 663.991,637.097 662.5,635C 673.828,634.5 685.162,634.333 696.5,634.5 Z"/></g>
</svg>
