<?xml version="1.0" encoding="UTF-8"?>
<svg xmlns="http://www.w3.org/2000/svg" xmlns:xlink="http://www.w3.org/1999/xlink" width="200px" height="180px" viewBox="0 0 200 180" version="1.1">
<defs>
<filter id="alpha" filterUnits="objectBoundingBox" x="0%" y="0%" width="100%" height="100%">
  <feColorMatrix type="matrix" in="SourceGraphic" values="0 0 0 0 1 0 0 0 0 1 0 0 0 0 1 0 0 0 1 0"/>
</filter>
<mask id="mask0">
  <g filter="url(#alpha)">
<rect x="0" y="0" width="200" height="180" style="fill:rgb(0%,0%,0%);fill-opacity:0.141176;stroke:none;"/>
  </g>
</mask>
<clipPath id="clip1">
  <rect x="0" y="0" width="200" height="180"/>
</clipPath>
<g id="surface5" clip-path="url(#clip1)">
<path style=" stroke:none;fill-rule:evenodd;fill:rgb(0%,0%,0%);fill-opacity:1;" d="M 110.832031 113.355469 C 112.609375 116.105469 114.335938 118.886719 116.019531 121.699219 C 116.648438 122.921875 117.328125 124.125 118.054688 125.3125 C 121.203125 125.40625 124.351562 125.4375 127.5 125.40625 C 129.847656 125.40625 132.191406 125.40625 134.535156 125.40625 C 137.992188 125.40625 141.449219 125.40625 144.90625 125.40625 C 145.03125 125.46875 145.152344 125.53125 145.277344 125.59375 C 145.023438 127.148438 144.097656 128.042969 142.5 128.28125 C 141.933594 128.3125 141.378906 128.40625 140.832031 128.558594 C 131.542969 128.992188 122.253906 129.363281 112.964844 129.671875 C 104.257812 129.546875 95.554688 129.421875 86.851562 129.300781 C 83.59375 129.324219 80.355469 129.386719 77.128906 129.484375 C 71.144531 129.015625 65.160156 128.617188 59.167969 128.28125 C 58 128.265625 56.890625 128.019531 55.832031 127.539062 C 55.257812 126.933594 54.886719 126.222656 54.722656 125.40625 C 56.945312 125.40625 59.167969 125.40625 61.390625 125.40625 C 64.042969 125.40625 66.699219 125.40625 69.351562 125.40625 C 70.710938 125.40625 72.066406 125.40625 73.425781 125.40625 C 76.203125 125.4375 78.980469 125.40625 81.757812 125.3125 C 82.761719 123.710938 83.6875 122.074219 84.535156 120.402344 C 85.707031 118.429688 86.878906 116.453125 88.054688 114.46875 C 88.300781 114.097656 88.550781 113.726562 88.796875 113.355469 C 92.175781 112.972656 95.574219 112.789062 98.980469 112.800781 C 102.941406 112.828125 106.890625 113.011719 110.832031 113.355469 Z M 110.832031 113.355469 "/>
</g>
<mask id="mask1">
  <g filter="url(#alpha)">
<rect x="0" y="0" width="200" height="180" style="fill:rgb(0%,0%,0%);fill-opacity:0.00784314;stroke:none;"/>
  </g>
</mask>
<clipPath id="clip2">
  <rect x="0" y="0" width="200" height="180"/>
</clipPath>
<g id="surface8" clip-path="url(#clip2)">
<path style=" stroke:none;fill-rule:evenodd;fill:rgb(0%,0%,0%);fill-opacity:1;" d="M 78.796875 114.46875 C 78.683594 114.636719 78.621094 114.820312 78.609375 115.027344 C 78.097656 115.769531 77.605469 116.542969 77.128906 117.34375 C 74.167969 117.4375 71.203125 117.464844 68.242188 117.4375 C 68.488281 117.003906 68.734375 116.570312 68.980469 116.136719 C 72.25 115.542969 75.519531 114.984375 78.796875 114.46875 Z M 78.796875 114.46875 "/>
</g>
<mask id="mask2">
  <g filter="url(#alpha)">
<rect x="0" y="0" width="200" height="180" style="fill:rgb(0%,0%,0%);fill-opacity:0.00392157;stroke:none;"/>
  </g>
</mask>
<clipPath id="clip3">
  <rect x="0" y="0" width="200" height="180"/>
</clipPath>
<g id="surface11" clip-path="url(#clip3)">
<path style=" stroke:none;fill-rule:evenodd;fill:rgb(0%,0%,0%);fill-opacity:1;" d="M 121.574219 115.398438 C 124.46875 115.9375 127.308594 116.617188 130.09375 117.4375 C 127.621094 117.464844 125.152344 117.4375 122.683594 117.34375 C 122.242188 116.734375 121.871094 116.085938 121.574219 115.398438 Z M 121.574219 115.398438 "/>
</g>
</defs>
<g id="surface1">
<path style=" stroke:none;fill-rule:evenodd;fill:rgb(94.509804%,90.588236%,59.215689%);fill-opacity:1;" d="M 96.203125 68.867188 C 96.246094 64.265625 96.183594 59.664062 96.019531 55.058594 C 96.140625 54.996094 96.265625 54.933594 96.390625 54.871094 C 95.960938 54.777344 95.527344 54.75 95.09375 54.777344 C 98.109375 54.410156 101.199219 54.285156 104.351562 54.40625 C 101.734375 59.273438 99.019531 64.09375 96.203125 68.867188 Z M 96.203125 68.867188 "/>
<path style=" stroke:none;fill-rule:evenodd;fill:rgb(90.196079%,83.92157%,53.725493%);fill-opacity:1;" d="M 95.09375 54.777344 C 95.527344 54.75 95.960938 54.777344 96.390625 54.871094 C 96.265625 54.933594 96.140625 54.996094 96.019531 55.058594 C 96.183594 59.664062 96.246094 64.265625 96.203125 68.867188 C 94.476562 71.832031 92.746094 74.800781 91.019531 77.765625 C 90.871094 77.710938 90.75 77.621094 90.648438 77.488281 C 90.960938 77.421875 91.144531 77.238281 91.203125 76.929688 C 91.226562 71.976562 91.199219 67 91.109375 62.007812 C 91.011719 62.503906 90.734375 62.875 90.277344 63.121094 C 91.742188 60.246094 93.347656 57.46875 95.09375 54.777344 Z M 95.09375 54.777344 "/>
<path style=" stroke:none;fill-rule:evenodd;fill:rgb(85.882354%,78.039217%,48.627451%);fill-opacity:1;" d="M 91.019531 77.765625 C 89.460938 80.574219 87.855469 83.355469 86.203125 86.105469 C 86 85.902344 85.96875 85.65625 86.109375 85.367188 C 86.171875 85.425781 86.234375 85.488281 86.296875 85.550781 C 86.367188 85.382812 86.457031 85.226562 86.574219 85.085938 C 86.453125 80.3125 86.328125 75.523438 86.203125 70.722656 C 85.957031 70.972656 85.707031 71.222656 85.464844 71.460938 C 86.929688 68.582031 88.535156 65.800781 90.277344 63.121094 C 90.734375 62.875 91.011719 62.503906 91.109375 62.007812 C 91.199219 67 91.226562 71.976562 91.203125 76.929688 C 91.144531 77.238281 90.960938 77.421875 90.648438 77.488281 C 90.75 77.621094 90.871094 77.710938 91.019531 77.765625 Z M 91.019531 77.765625 "/>
<path style=" stroke:none;fill-rule:evenodd;fill:rgb(85.882354%,78.039217%,48.627451%);fill-opacity:1;" d="M 110.277344 64.789062 C 111.730469 67.082031 113.089844 69.429688 114.351562 71.832031 C 114.109375 71.652344 113.863281 71.46875 113.609375 71.277344 C 113.488281 76.078125 113.363281 80.867188 113.242188 85.644531 C 113.757812 86.269531 114.066406 86.917969 114.167969 87.589844 C 112.679688 85.167969 111.257812 82.695312 109.90625 80.175781 C 110.007812 80.164062 110.070312 80.101562 110.09375 79.988281 C 109.65625 79.363281 109.316406 78.683594 109.074219 77.949219 C 108.949219 73.128906 108.949219 68.3125 109.074219 63.492188 C 109.519531 63.90625 109.917969 64.335938 110.277344 64.789062 Z M 110.277344 64.789062 "/>
<path style=" stroke:none;fill-rule:evenodd;fill:rgb(90.588236%,85.09804%,54.509807%);fill-opacity:1;" d="M 110.277344 64.789062 C 109.917969 64.335938 109.519531 63.90625 109.074219 63.492188 C 108.949219 68.3125 108.949219 73.128906 109.074219 77.949219 C 109.316406 78.683594 109.65625 79.363281 110.09375 79.988281 C 110.070312 80.101562 110.007812 80.164062 109.90625 80.175781 C 109.523438 79.59375 109.183594 78.972656 108.890625 78.320312 C 107.542969 80.710938 106.152344 83.058594 104.722656 85.367188 C 104.382812 80.734375 104.230469 76.039062 104.257812 71.277344 C 104.199219 71.339844 104.136719 71.402344 104.074219 71.460938 C 104.023438 71.292969 103.929688 71.167969 103.796875 71.089844 C 105.480469 68.246094 107.148438 65.371094 108.796875 62.472656 C 108.976562 62.363281 109.101562 62.425781 109.167969 62.65625 C 109.65625 63.304688 110.027344 64.011719 110.277344 64.789062 Z M 110.277344 64.789062 "/>
<path style=" stroke:none;fill-rule:evenodd;fill:rgb(81.960785%,72.549021%,43.921569%);fill-opacity:1;" d="M 86.203125 86.105469 C 84.660156 88.824219 83.117188 91.542969 81.574219 94.261719 C 81.449219 89.351562 81.328125 84.40625 81.203125 79.433594 C 80.945312 79.636719 80.730469 79.886719 80.554688 80.175781 C 80.480469 80.132812 80.449219 80.070312 80.464844 79.988281 C 82.039062 77.078125 83.707031 74.238281 85.464844 71.460938 C 85.707031 71.222656 85.957031 70.972656 86.203125 70.722656 C 86.328125 75.523438 86.453125 80.3125 86.574219 85.085938 C 86.457031 85.226562 86.367188 85.382812 86.296875 85.550781 C 86.234375 85.488281 86.171875 85.425781 86.109375 85.367188 C 85.96875 85.65625 86 85.902344 86.203125 86.105469 Z M 86.203125 86.105469 "/>
<path style=" stroke:none;fill-rule:evenodd;fill:rgb(94.509804%,90.588236%,59.215689%);fill-opacity:1;" d="M 103.796875 71.089844 C 103.929688 71.167969 104.023438 71.292969 104.074219 71.460938 C 104.136719 71.402344 104.199219 71.339844 104.257812 71.277344 C 104.230469 76.039062 104.382812 80.734375 104.722656 85.367188 C 102.085938 90.339844 99.308594 95.21875 96.390625 100.011719 C 96.242188 99.667969 96.121094 99.296875 96.019531 98.898438 C 96.019531 94.527344 96.050781 90.015625 96.109375 85.367188 C 96.050781 85.304688 95.988281 85.242188 95.925781 85.179688 C 95.855469 85.449219 95.703125 85.632812 95.464844 85.738281 C 98.195312 80.824219 100.972656 75.941406 103.796875 71.089844 Z M 103.796875 71.089844 "/>
<path style=" stroke:none;fill-rule:evenodd;fill:rgb(81.568629%,72.156864%,43.529412%);fill-opacity:1;" d="M 114.351562 71.832031 C 115.832031 74.1875 117.253906 76.597656 118.609375 79.0625 C 118.574219 79.347656 118.449219 79.597656 118.242188 79.804688 C 118.363281 83.300781 118.488281 86.792969 118.609375 90.277344 C 118.488281 91.019531 118.363281 91.761719 118.242188 92.503906 C 118.386719 93.195312 118.480469 93.90625 118.519531 94.632812 C 118.648438 94.925781 118.804688 95.207031 118.980469 95.46875 C 118.9375 95.542969 118.878906 95.574219 118.796875 95.5625 C 117.210938 92.945312 115.667969 90.289062 114.167969 87.589844 C 114.066406 86.917969 113.757812 86.269531 113.242188 85.644531 C 113.363281 80.867188 113.488281 76.078125 113.609375 71.277344 C 113.863281 71.46875 114.109375 71.652344 114.351562 71.832031 Z M 114.351562 71.832031 "/>
<path style=" stroke:none;fill-rule:evenodd;fill:rgb(77.64706%,66.274512%,39.215687%);fill-opacity:1;" d="M 81.574219 94.261719 C 80.078125 96.949219 78.535156 99.609375 76.945312 102.234375 C 76.859375 101.574219 76.796875 100.894531 76.757812 100.195312 C 76.824219 99.972656 76.914062 99.972656 77.035156 100.195312 C 77.160156 99.886719 77.160156 99.578125 77.035156 99.269531 C 76.976562 99.390625 76.914062 99.515625 76.851562 99.640625 C 76.796875 98.929688 76.765625 98.25 76.757812 97.601562 C 76.824219 97.378906 76.914062 97.378906 77.035156 97.601562 C 77.066406 97.414062 77.097656 97.230469 77.128906 97.042969 C 77.007812 96.613281 76.882812 96.179688 76.757812 95.746094 C 76.882812 95.3125 77.007812 94.882812 77.128906 94.449219 C 77.09375 93.722656 77 93.722656 76.851562 94.449219 C 76.792969 93.675781 76.761719 92.933594 76.757812 92.222656 C 76.824219 92.003906 76.914062 92.003906 77.035156 92.222656 C 77.160156 91.855469 77.160156 91.484375 77.035156 91.113281 C 76.855469 91.804688 76.765625 91.742188 76.757812 90.925781 C 77.105469 89.585938 77.195312 88.226562 77.035156 86.847656 C 76.976562 87.835938 76.914062 88.824219 76.851562 89.816406 C 76.789062 88.886719 76.726562 87.960938 76.667969 87.035156 C 76.597656 87.300781 76.441406 87.488281 76.203125 87.589844 C 77.578125 85.023438 78.996094 82.492188 80.464844 79.988281 C 80.449219 80.070312 80.480469 80.132812 80.554688 80.175781 C 80.730469 79.886719 80.945312 79.636719 81.203125 79.433594 C 81.328125 84.40625 81.449219 89.351562 81.574219 94.261719 Z M 81.574219 94.261719 "/>
<path style=" stroke:none;fill-rule:evenodd;fill:rgb(77.64706%,65.882355%,38.82353%);fill-opacity:1;" d="M 118.609375 79.0625 C 120.210938 81.839844 121.8125 84.621094 123.425781 87.40625 C 123.445312 87.753906 123.351562 87.816406 123.148438 87.589844 C 123 88.503906 123.03125 89.398438 123.242188 90.277344 C 122.832031 90.9375 122.832031 91.617188 123.242188 92.316406 C 123.117188 92.378906 122.992188 92.441406 122.871094 92.503906 C 123.023438 95.816406 123.023438 99.121094 122.871094 102.421875 C 121.375 100.230469 120.015625 97.945312 118.796875 95.5625 C 118.878906 95.574219 118.9375 95.542969 118.980469 95.46875 C 118.804688 95.207031 118.648438 94.925781 118.519531 94.632812 C 118.480469 93.90625 118.386719 93.195312 118.242188 92.503906 C 118.363281 91.761719 118.488281 91.019531 118.609375 90.277344 C 118.488281 86.792969 118.363281 83.300781 118.242188 79.804688 C 118.449219 79.597656 118.574219 79.347656 118.609375 79.0625 Z M 118.609375 79.0625 "/>
<path style=" stroke:none;fill-rule:evenodd;fill:rgb(90.980393%,85.490197%,54.901963%);fill-opacity:1;" d="M 96.390625 100.011719 C 95.277344 101.988281 94.167969 103.964844 93.054688 105.941406 C 92.90625 105.671875 92.8125 105.363281 92.777344 105.015625 C 92.636719 105.492188 92.542969 105.492188 92.5 105.015625 C 92.667969 100.726562 92.730469 96.433594 92.683594 92.132812 C 92.550781 91.871094 92.457031 91.59375 92.40625 91.296875 C 92.332031 91.53125 92.175781 91.652344 91.945312 91.667969 C 93.023438 89.628906 94.199219 87.652344 95.464844 85.738281 C 95.703125 85.632812 95.855469 85.449219 95.925781 85.179688 C 95.988281 85.242188 96.050781 85.304688 96.109375 85.367188 C 96.050781 90.015625 96.019531 94.527344 96.019531 98.898438 C 96.121094 99.296875 96.242188 99.667969 96.390625 100.011719 Z M 96.390625 100.011719 "/>
<path style=" stroke:none;fill-rule:evenodd;fill:rgb(72.941178%,60.392159%,34.117648%);fill-opacity:1;" d="M 76.945312 102.234375 C 75.105469 105.355469 73.316406 108.507812 71.574219 111.6875 C 71.457031 106.820312 71.335938 101.90625 71.203125 96.953125 C 71.265625 96.890625 71.328125 96.828125 71.390625 96.765625 C 71.234375 96.640625 71.113281 96.667969 71.019531 96.859375 C 70.648438 97.597656 70.214844 98.273438 69.722656 98.898438 C 71.742188 95.035156 73.902344 91.265625 76.203125 87.589844 C 76.441406 87.488281 76.597656 87.300781 76.667969 87.035156 C 76.726562 87.960938 76.789062 88.886719 76.851562 89.816406 C 76.914062 88.824219 76.976562 87.835938 77.035156 86.847656 C 77.195312 88.226562 77.105469 89.585938 76.757812 90.925781 C 76.765625 91.742188 76.855469 91.804688 77.035156 91.113281 C 77.160156 91.484375 77.160156 91.855469 77.035156 92.222656 C 76.914062 92.003906 76.824219 92.003906 76.757812 92.222656 C 76.761719 92.933594 76.792969 93.675781 76.851562 94.449219 C 77 93.722656 77.09375 93.722656 77.128906 94.449219 C 77.007812 94.882812 76.882812 95.3125 76.757812 95.746094 C 76.882812 96.179688 77.007812 96.613281 77.128906 97.042969 C 77.097656 97.230469 77.066406 97.414062 77.035156 97.601562 C 76.914062 97.378906 76.824219 97.378906 76.757812 97.601562 C 76.765625 98.25 76.796875 98.929688 76.851562 99.640625 C 76.914062 99.515625 76.976562 99.390625 77.035156 99.269531 C 77.160156 99.578125 77.160156 99.886719 77.035156 100.195312 C 76.914062 99.972656 76.824219 99.972656 76.757812 100.195312 C 76.796875 100.894531 76.859375 101.574219 76.945312 102.234375 Z M 76.945312 102.234375 "/>
<path style=" stroke:none;fill-rule:evenodd;fill:rgb(72.941178%,60.392159%,34.117648%);fill-opacity:1;" d="M 123.425781 87.40625 C 125.320312 90.640625 127.171875 93.917969 128.980469 97.230469 C 128.625 96.707031 128.226562 96.210938 127.777344 95.746094 C 127.746094 96.148438 127.714844 96.550781 127.683594 96.953125 C 127.78125 101.164062 127.78125 105.332031 127.683594 109.464844 C 128.050781 110.371094 128.296875 111.238281 128.425781 112.058594 C 126.480469 108.910156 124.628906 105.695312 122.871094 102.421875 C 123.023438 99.121094 123.023438 95.816406 122.871094 92.503906 C 122.992188 92.441406 123.117188 92.378906 123.242188 92.316406 C 122.832031 91.617188 122.832031 90.9375 123.242188 90.277344 C 123.03125 89.398438 123 88.503906 123.148438 87.589844 C 123.351562 87.816406 123.445312 87.753906 123.425781 87.40625 Z M 123.425781 87.40625 "/>
<path style=" stroke:none;fill-rule:evenodd;fill:rgb(87.450981%,80.392158%,50.588238%);fill-opacity:1;" d="M 93.054688 105.941406 C 91.636719 108.414062 90.214844 110.886719 88.796875 113.355469 C 88.550781 113.726562 88.300781 114.097656 88.054688 114.46875 C 87.832031 114.285156 87.863281 114.097656 88.148438 113.914062 C 88.195312 113.011719 88.285156 112.113281 88.425781 111.226562 C 88.425781 107.640625 88.425781 104.058594 88.425781 100.472656 C 88.339844 99.976562 88.1875 99.515625 87.964844 99.082031 C 87.832031 99.246094 87.675781 99.371094 87.5 99.453125 C 88.886719 96.796875 90.371094 94.203125 91.945312 91.667969 C 92.175781 91.652344 92.332031 91.53125 92.40625 91.296875 C 92.457031 91.59375 92.550781 91.871094 92.683594 92.132812 C 92.730469 96.433594 92.667969 100.726562 92.5 105.015625 C 92.542969 105.492188 92.636719 105.492188 92.777344 105.015625 C 92.8125 105.363281 92.90625 105.671875 93.054688 105.941406 Z M 93.054688 105.941406 "/>
<path style=" stroke:none;fill-rule:evenodd;fill:rgb(88.235295%,81.568629%,51.372552%);fill-opacity:1;" d="M 111.945312 99.082031 C 111.6875 98.882812 111.472656 98.636719 111.296875 98.34375 C 111.246094 98.640625 111.152344 98.917969 111.019531 99.175781 C 111.128906 103.421875 111.1875 107.652344 111.203125 111.875 C 111.171875 112.058594 111.140625 112.246094 111.109375 112.429688 C 110.933594 112.5 110.78125 112.5625 110.648438 112.617188 C 108.410156 109.066406 106.3125 105.421875 104.351562 101.679688 C 105.820312 99.003906 107.332031 96.34375 108.890625 93.707031 C 110.003906 95.445312 111.019531 97.234375 111.945312 99.082031 Z M 111.945312 99.082031 "/>
<path style=" stroke:none;fill-rule:evenodd;fill:rgb(69.01961%,54.11765%,29.019609%);fill-opacity:1;" d="M 71.574219 111.6875 C 70.710938 113.171875 69.847656 114.65625 68.980469 116.136719 C 68.734375 116.570312 68.488281 117.003906 68.242188 117.4375 C 69.5625 117.621094 70.921875 117.679688 72.316406 117.621094 C 72.226562 118.097656 72.101562 118.558594 71.945312 119.011719 C 72.386719 119.140625 72.386719 119.324219 71.945312 119.566406 C 72.109375 121.167969 72.109375 122.773438 71.945312 124.386719 C 72.386719 124.515625 72.386719 124.699219 71.945312 124.941406 C 72.007812 125.003906 72.066406 125.066406 72.128906 125.128906 C 71.167969 125.160156 70.242188 125.253906 69.351562 125.40625 C 66.699219 125.40625 64.042969 125.40625 61.390625 125.40625 C 61.90625 125.226562 62.460938 125.164062 63.054688 125.222656 C 64.414062 125.253906 65.773438 125.222656 67.128906 125.128906 C 67.066406 122.378906 66.882812 119.660156 66.574219 116.972656 C 66.8125 116.246094 66.9375 115.476562 66.945312 114.65625 C 66.9375 113.835938 66.8125 113.0625 66.574219 112.335938 C 66.882812 109.773438 67.066406 107.179688 67.128906 104.550781 C 66.863281 104.445312 66.617188 104.476562 66.390625 104.644531 C 67.359375 102.636719 68.472656 100.722656 69.722656 98.898438 C 70.214844 98.273438 70.648438 97.597656 71.019531 96.859375 C 71.113281 96.667969 71.234375 96.640625 71.390625 96.765625 C 71.328125 96.828125 71.265625 96.890625 71.203125 96.953125 C 71.335938 101.90625 71.457031 106.820312 71.574219 111.6875 Z M 71.574219 111.6875 "/>
<path style=" stroke:none;fill-rule:evenodd;fill:rgb(69.01961%,54.509807%,29.411766%);fill-opacity:1;" d="M 128.980469 97.230469 C 129.238281 97.429688 129.453125 97.675781 129.628906 97.972656 C 131.019531 100.507812 132.410156 103.042969 133.796875 105.570312 C 133.507812 105.308594 133.261719 105 133.054688 104.644531 C 132.992188 105.570312 132.933594 106.5 132.871094 107.425781 C 132.875 108.429688 133 109.386719 133.242188 110.296875 C 133.015625 110.582031 132.890625 110.921875 132.871094 111.316406 C 132.890625 111.714844 133.015625 112.054688 133.242188 112.335938 C 133 113.0625 132.878906 113.835938 132.871094 114.65625 C 132.878906 115.476562 133 116.246094 133.242188 116.972656 C 133 118.039062 132.875 119.152344 132.871094 120.308594 C 132.875 121.464844 133 122.578125 133.242188 123.644531 C 132.808594 124.117188 132.746094 124.640625 133.054688 125.222656 C 131.511719 125.222656 129.96875 125.222656 128.425781 125.222656 C 128.472656 123.359375 128.535156 121.535156 128.609375 119.753906 C 128.488281 119.136719 128.363281 118.515625 128.242188 117.898438 C 128.527344 117.859375 128.777344 117.765625 128.980469 117.621094 C 129.882812 117.679688 130.746094 117.617188 131.574219 117.4375 C 130.476562 115.675781 129.429688 113.882812 128.425781 112.058594 C 128.296875 111.238281 128.050781 110.371094 127.683594 109.464844 C 127.78125 105.332031 127.78125 101.164062 127.683594 96.953125 C 127.714844 96.550781 127.746094 96.148438 127.777344 95.746094 C 128.226562 96.210938 128.625 96.707031 128.980469 97.230469 Z M 128.980469 97.230469 "/>
<path style=" stroke:none;fill-rule:evenodd;fill:rgb(83.529413%,75.294119%,46.27451%);fill-opacity:1;" d="M 88.054688 114.46875 C 86.878906 116.453125 85.707031 118.429688 84.535156 120.402344 C 84.558594 120.054688 84.464844 119.992188 84.257812 120.214844 C 84.289062 115.394531 84.132812 110.636719 83.796875 105.941406 C 84.890625 103.6875 86.125 101.523438 87.5 99.453125 C 87.675781 99.371094 87.832031 99.246094 87.964844 99.082031 C 88.1875 99.515625 88.339844 99.976562 88.425781 100.472656 C 88.425781 104.058594 88.425781 107.640625 88.425781 111.226562 C 88.285156 112.113281 88.195312 113.011719 88.148438 113.914062 C 87.863281 114.097656 87.832031 114.285156 88.054688 114.46875 Z M 88.054688 114.46875 "/>
<path style=" stroke:none;fill-rule:evenodd;fill:rgb(83.529413%,74.901962%,46.27451%);fill-opacity:1;" d="M 111.945312 99.082031 C 113.6875 101.773438 115.292969 104.550781 116.757812 107.425781 C 116.640625 107.367188 116.515625 107.308594 116.390625 107.238281 C 116.261719 112.066406 116.140625 116.886719 116.019531 121.699219 C 114.335938 118.886719 112.609375 116.105469 110.832031 113.355469 C 110.773438 113.109375 110.710938 112.863281 110.648438 112.617188 C 110.78125 112.5625 110.933594 112.5 111.109375 112.429688 C 111.140625 112.246094 111.171875 112.058594 111.203125 111.875 C 111.1875 107.652344 111.128906 103.421875 111.019531 99.175781 C 111.152344 98.917969 111.246094 98.640625 111.296875 98.34375 C 111.472656 98.636719 111.6875 98.882812 111.945312 99.082031 Z M 111.945312 99.082031 "/>
<path style=" stroke:none;fill-rule:evenodd;fill:rgb(80.392158%,70.588237%,42.352942%);fill-opacity:1;" d="M 83.796875 105.941406 C 84.132812 110.636719 84.289062 115.394531 84.257812 120.214844 C 84.464844 119.992188 84.558594 120.054688 84.535156 120.402344 C 83.6875 122.074219 82.761719 123.710938 81.757812 125.3125 C 78.980469 125.40625 76.203125 125.4375 73.425781 125.40625 C 74.5625 125.222656 75.738281 125.160156 76.945312 125.222656 C 77.808594 125.222656 78.671875 125.222656 79.535156 125.222656 C 79.566406 121.453125 79.535156 117.683594 79.445312 113.914062 C 79.207031 114.328125 78.929688 114.699219 78.609375 115.027344 C 78.621094 114.820312 78.683594 114.636719 78.796875 114.46875 C 80.371094 111.558594 82.039062 108.71875 83.796875 105.941406 Z M 83.796875 105.941406 "/>
<path style=" stroke:none;fill-rule:evenodd;fill:rgb(65.098041%,49.019608%,25.098041%);fill-opacity:1;" d="M 63.054688 125.222656 C 63.085938 120.464844 63.054688 115.707031 62.964844 110.949219 C 62.894531 111.214844 62.738281 111.398438 62.5 111.503906 C 63.660156 109.121094 64.957031 106.832031 66.390625 104.644531 C 66.617188 104.476562 66.863281 104.445312 67.128906 104.550781 C 67.066406 107.179688 66.882812 109.773438 66.574219 112.335938 C 66.8125 113.0625 66.9375 113.835938 66.945312 114.65625 C 66.9375 115.476562 66.8125 116.246094 66.574219 116.972656 C 66.882812 119.660156 67.066406 122.378906 67.128906 125.128906 C 65.773438 125.222656 64.414062 125.253906 63.054688 125.222656 Z M 63.054688 125.222656 "/>
<path style=" stroke:none;fill-rule:evenodd;fill:rgb(64.705884%,48.627451%,24.313726%);fill-opacity:1;" d="M 133.796875 105.570312 C 135.429688 108.097656 136.972656 110.695312 138.425781 113.355469 C 138.191406 113.484375 138.191406 113.640625 138.425781 113.820312 C 138.160156 114.003906 137.972656 114.25 137.871094 114.5625 C 137.878906 118.09375 137.878906 121.617188 137.871094 125.128906 C 140.25 125.160156 142.59375 125.253906 144.90625 125.40625 C 141.449219 125.40625 137.992188 125.40625 134.535156 125.40625 C 134.082031 125.226562 133.589844 125.164062 133.054688 125.222656 C 132.746094 124.640625 132.808594 124.117188 133.242188 123.644531 C 133 122.578125 132.875 121.464844 132.871094 120.308594 C 132.875 119.152344 133 118.039062 133.242188 116.972656 C 133 116.246094 132.878906 115.476562 132.871094 114.65625 C 132.878906 113.835938 133 113.0625 133.242188 112.335938 C 133.015625 112.054688 132.890625 111.714844 132.871094 111.316406 C 132.890625 110.921875 133.015625 110.582031 133.242188 110.296875 C 133 109.386719 132.875 108.429688 132.871094 107.425781 C 132.933594 106.5 132.992188 105.570312 133.054688 104.644531 C 133.261719 105 133.507812 105.308594 133.796875 105.570312 Z M 133.796875 105.570312 "/>
<path style=" stroke:none;fill-rule:evenodd;fill:rgb(79.215688%,68.235296%,40.392157%);fill-opacity:1;" d="M 116.757812 107.425781 C 118.40625 110.039062 120.011719 112.695312 121.574219 115.398438 C 121.871094 116.085938 122.242188 116.734375 122.683594 117.34375 C 125.152344 117.4375 127.621094 117.464844 130.09375 117.4375 C 130.585938 117.4375 131.082031 117.4375 131.574219 117.4375 C 130.746094 117.617188 129.882812 117.679688 128.980469 117.621094 C 126.882812 117.589844 124.78125 117.621094 122.683594 117.714844 C 122.960938 118.101562 123.144531 118.535156 123.242188 119.011719 C 123.117188 119.074219 122.992188 119.136719 122.871094 119.195312 C 123.042969 121.234375 123.042969 123.210938 122.871094 125.128906 C 124.445312 125.160156 125.988281 125.253906 127.5 125.40625 C 124.351562 125.4375 121.203125 125.40625 118.054688 125.3125 C 117.328125 124.125 116.648438 122.921875 116.019531 121.699219 C 116.140625 116.886719 116.261719 112.066406 116.390625 107.238281 C 116.515625 107.308594 116.640625 107.367188 116.757812 107.425781 Z M 116.757812 107.425781 "/>
<use xlink:href="#surface5" mask="url(#mask0)"/>
<path style=" stroke:none;fill-rule:evenodd;fill:rgb(61.56863%,43.921569%,20.392157%);fill-opacity:1;" d="M 63.054688 125.222656 C 62.460938 125.164062 61.90625 125.226562 61.390625 125.40625 C 59.167969 125.40625 56.945312 125.40625 54.722656 125.40625 C 54.585938 125.429688 54.460938 125.398438 54.351562 125.3125 C 57.050781 120.675781 59.769531 116.074219 62.5 111.503906 C 62.738281 111.398438 62.894531 111.214844 62.964844 110.949219 C 63.054688 115.707031 63.085938 120.464844 63.054688 125.222656 Z M 63.054688 125.222656 "/>
<path style=" stroke:none;fill-rule:evenodd;fill:rgb(77.64706%,66.274512%,39.215687%);fill-opacity:1;" d="M 76.945312 125.222656 C 76.835938 124.90625 76.773438 124.597656 76.757812 124.292969 C 76.824219 124.074219 76.914062 124.074219 77.035156 124.292969 C 77.066406 124.109375 77.097656 123.921875 77.128906 123.738281 C 77.007812 123.304688 76.882812 122.875 76.757812 122.441406 C 76.882812 122.007812 77.007812 121.574219 77.128906 121.144531 C 77.09375 120.414062 77 120.414062 76.851562 121.144531 C 76.792969 120.371094 76.761719 119.628906 76.757812 118.917969 C 76.824219 118.695312 76.914062 118.695312 77.035156 118.917969 C 77.128906 118.492188 77.160156 118.058594 77.128906 117.621094 C 75.523438 117.621094 73.917969 117.621094 72.316406 117.621094 C 70.921875 117.679688 69.5625 117.621094 68.242188 117.4375 C 71.203125 117.464844 74.167969 117.4375 77.128906 117.34375 C 77.605469 116.542969 78.097656 115.769531 78.609375 115.027344 C 78.929688 114.699219 79.207031 114.328125 79.445312 113.914062 C 79.535156 117.683594 79.566406 121.453125 79.535156 125.222656 C 78.671875 125.222656 77.808594 125.222656 76.945312 125.222656 Z M 76.945312 125.222656 "/>
<use xlink:href="#surface8" mask="url(#mask1)"/>
<use xlink:href="#surface11" mask="url(#mask2)"/>
<path style=" stroke:none;fill-rule:evenodd;fill:rgb(60.784316%,42.745098%,19.607843%);fill-opacity:1;" d="M 138.425781 113.355469 C 140.722656 117.359375 143.070312 121.34375 145.464844 125.3125 C 145.359375 125.386719 145.296875 125.476562 145.277344 125.59375 C 145.152344 125.53125 145.03125 125.46875 144.90625 125.40625 C 142.59375 125.253906 140.25 125.160156 137.871094 125.128906 C 137.878906 121.617188 137.878906 118.09375 137.871094 114.5625 C 137.972656 114.25 138.160156 114.003906 138.425781 113.820312 C 138.191406 113.640625 138.191406 113.484375 138.425781 113.355469 Z M 138.425781 113.355469 "/>
<path style=" stroke:none;fill-rule:evenodd;fill:rgb(73.333335%,60.392159%,34.117648%);fill-opacity:1;" d="M 72.316406 117.621094 C 73.917969 117.621094 75.523438 117.621094 77.128906 117.621094 C 77.160156 118.058594 77.128906 118.492188 77.035156 118.917969 C 76.914062 118.695312 76.824219 118.695312 76.757812 118.917969 C 76.761719 119.628906 76.792969 120.371094 76.851562 121.144531 C 77 120.414062 77.09375 120.414062 77.128906 121.144531 C 77.007812 121.574219 76.882812 122.007812 76.757812 122.441406 C 76.882812 122.875 77.007812 123.304688 77.128906 123.738281 C 77.097656 123.921875 77.066406 124.109375 77.035156 124.292969 C 76.914062 124.074219 76.824219 124.074219 76.757812 124.292969 C 76.773438 124.597656 76.835938 124.90625 76.945312 125.222656 C 75.738281 125.160156 74.5625 125.222656 73.425781 125.40625 C 72.066406 125.40625 70.710938 125.40625 69.351562 125.40625 C 70.242188 125.253906 71.167969 125.160156 72.128906 125.128906 C 72.066406 125.066406 72.007812 125.003906 71.945312 124.941406 C 72.386719 124.699219 72.386719 124.515625 71.945312 124.386719 C 72.109375 122.773438 72.109375 121.167969 71.945312 119.566406 C 72.386719 119.324219 72.386719 119.140625 71.945312 119.011719 C 72.101562 118.558594 72.226562 118.097656 72.316406 117.621094 Z M 72.316406 117.621094 "/>
<path style=" stroke:none;fill-rule:evenodd;fill:rgb(72.941178%,60.000002%,33.725491%);fill-opacity:1;" d="M 128.980469 117.621094 C 128.777344 117.765625 128.527344 117.859375 128.242188 117.898438 C 128.363281 118.515625 128.488281 119.136719 128.609375 119.753906 C 128.535156 121.535156 128.472656 123.359375 128.425781 125.222656 C 129.96875 125.222656 131.511719 125.222656 133.054688 125.222656 C 133.589844 125.164062 134.082031 125.226562 134.535156 125.40625 C 132.191406 125.40625 129.847656 125.40625 127.5 125.40625 C 125.988281 125.253906 124.445312 125.160156 122.871094 125.128906 C 123.042969 123.210938 123.042969 121.234375 122.871094 119.195312 C 122.992188 119.136719 123.117188 119.074219 123.242188 119.011719 C 123.144531 118.535156 122.960938 118.101562 122.683594 117.714844 C 124.78125 117.621094 126.882812 117.589844 128.980469 117.621094 Z M 128.980469 117.621094 "/>
</g>
</svg>
